<svg width="281" height="106" viewBox="0 0 281 106" fill="none" xmlns="http://www.w3.org/2000/svg">
<path d="M50 23.0005C50 21.1439 49.263 19.363 47.9502 18.0503C46.7194 16.8194 45.077 16.095 43.3467 16.0092L43 16.0005C41.1435 16.0005 39.3626 16.7375 38.0498 18.0503C36.737 19.363 36 21.1439 36 23.0005C36 24.857 36.737 26.6379 38.0498 27.9506C39.3626 29.2634 41.1435 30.0005 43 30.0005L43.3467 29.9917C45.077 29.9059 46.7194 29.1815 47.9502 27.9506C49.263 26.6379 50 24.857 50 23.0005ZM56 23.0005C56 26.4483 54.6304 29.7549 52.1924 32.1928C49.8307 34.5545 46.6539 35.9138 43.3232 35.9965L43 36.0005C39.5522 36.0005 36.2456 34.6308 33.8076 32.1928C31.3696 29.7549 30 26.4483 30 23.0005C30 19.5526 31.3696 16.246 33.8076 13.8081C35.6285 11.9871 37.9339 10.7617 40.4209 10.2583C41.5121 6.51581 44.883 1.93767 52.2725 0.0902948C53.8798 -0.311551 55.5083 0.665527 55.9102 2.27291C56.312 3.8803 55.3349 5.50876 53.7275 5.91061C49.6853 6.92116 47.7026 8.90346 46.7686 10.5581C48.7981 11.1728 50.6655 12.2812 52.1924 13.8081C54.6304 16.246 56 19.5526 56 23.0005Z" fill="#EEE8AA"/>
<path d="M56.6006 55.185C58.0138 55.1853 59.2357 56.1725 59.5332 57.5542C60.6651 62.8098 65.4908 65.3391 70.6807 64.8569C75.8569 64.3758 80 61.0412 80 55.6704C79.9999 49.8724 73.8761 44.9767 67.3652 46.3413C66.1103 46.6042 64.8273 46.0409 64.1719 44.9389C63.5164 43.8369 63.6338 42.4405 64.4639 41.4633C66.6648 38.8724 66.4933 35.352 64.0967 31.9555C61.6857 28.5389 57.4289 26.0005 53 26.0005V20.0005C59.621 20.0005 65.6112 23.6948 68.999 28.4956C71.3805 31.8704 72.6686 36.1562 71.6709 40.2592C79.3736 41.2565 86 47.5067 86 55.6704C86 65.0595 78.4876 70.1576 71.2363 70.8315C65.9749 71.3205 60.1137 69.5544 56.5527 65.06C53.2253 69.1036 47.934 70.9995 43 70.9995C38.066 70.9995 32.7737 69.1045 29.4463 65.061C25.8854 69.556 20.0253 71.3229 14.7637 70.8335C7.51227 70.1588 0 65.0591 0 55.6704C4.33329e-05 47.5062 6.62402 41.2547 14.3291 40.2583C13.3331 36.1554 14.6239 31.8698 17.0049 28.4956C20.3924 23.6953 26.381 20.0005 33 20.0005V26.0005C28.5741 26.0005 24.3185 28.5384 21.9072 31.9555C19.51 35.3527 19.338 38.8737 21.5371 41.4643C22.3665 42.4415 22.4833 43.8374 21.8281 44.9389C21.1727 46.0406 19.8895 46.6041 18.6348 46.3413C12.1191 44.9767 6.00006 49.8721 6 55.6704C6 61.0416 10.1432 64.3773 15.3193 64.8588C20.5087 65.3416 25.3348 62.8126 26.4668 57.5542L26.5332 57.3003C26.9175 56.0531 28.0742 55.1853 29.3994 55.185C30.8128 55.1848 32.0352 56.1716 32.333 57.5532C33.3506 62.275 37.8142 64.9995 43 64.9995C48.1858 64.9995 52.6494 62.275 53.667 57.5532C53.9648 56.1716 55.1872 55.1849 56.6006 55.185Z" fill="#EEE8AA"/>
<path d="M70.1152 67.1762C70.5704 65.5832 72.2311 64.6606 73.8242 65.1157C75.4173 65.5708 76.3399 67.2316 75.8848 68.8247L70.0293 89.3198C69.0512 92.7419 68.2504 95.5582 67.334 97.7553C66.3873 100.025 65.2037 101.931 63.29 103.378L63.2852 103.381C61.3669 104.826 59.2084 105.442 56.7656 105.728C54.4015 106.005 51.4735 106 47.915 106H38.085C34.5263 106 31.599 106.005 29.2354 105.728C26.7926 105.442 24.6361 104.826 22.7168 103.383L22.71 103.378C20.7954 101.93 19.6127 100.023 18.667 97.7544C17.7518 95.5584 16.9508 92.7423 15.9707 89.3217V89.3198L10.1152 68.8247C9.66012 67.2316 10.5827 65.5708 12.1758 65.1157C13.7689 64.6606 15.4296 65.5832 15.8848 67.1762L21.7383 87.6694C22.7581 91.2286 23.4553 93.6478 24.2051 95.4467C24.9221 97.1672 25.5708 98.0159 26.3232 98.5874L26.6201 98.7934C27.3457 99.2546 28.3116 99.5788 29.9346 99.769C31.8684 99.9957 34.3839 100 38.085 100H47.915C51.6161 100 54.1329 99.9957 56.0674 99.769C57.9232 99.5515 58.9181 99.1593 59.6748 98.5893C60.4291 98.0172 61.0789 97.1672 61.7969 95.4458C62.5467 93.6479 63.2439 91.2291 64.2607 87.6713L70.1152 67.1762Z" fill="#EEE8AA"/>
<path d="M254.456 38.2962V10.2962H267.256C269.816 10.2962 272.016 10.7096 273.856 11.5362C275.722 12.3629 277.162 13.5629 278.176 15.1362C279.189 16.6829 279.696 18.5229 279.696 20.6562C279.696 22.7629 279.189 24.5896 278.176 26.1362C277.162 27.6562 275.722 28.8296 273.856 29.6562C272.016 30.4562 269.816 30.8562 267.256 30.8562H258.856L262.376 27.5362V38.2962H254.456ZM271.776 38.2962L264.816 28.0962H273.256L280.256 38.2962H271.776ZM262.376 28.3762L258.856 24.7362H266.776C268.429 24.7362 269.656 24.3762 270.456 23.6562C271.282 22.9362 271.696 21.9362 271.696 20.6562C271.696 19.3496 271.282 18.3362 270.456 17.6162C269.656 16.8962 268.429 16.5362 266.776 16.5362H258.856L262.376 12.8962V28.3762Z" fill="#EEE8AA"/>
<path d="M231.661 21.1362H244.661V27.0562H231.661V21.1362ZM232.221 32.1762H246.861V38.2962H224.381V10.2962H246.341V16.4162H232.221V32.1762Z" fill="#EEE8AA"/>
<path d="M198.182 32.0962L197.742 23.2162L209.782 10.2962H218.502L206.502 23.2962L202.102 27.8962L198.182 32.0962ZM191.102 38.2962V10.2962H198.942V38.2962H191.102ZM209.902 38.2962L200.782 26.7362L205.942 21.2162L219.102 38.2962H209.902Z" fill="#EEE8AA"/>
<path d="M171.844 38.8562C169.551 38.8562 167.337 38.5762 165.204 38.0162C163.097 37.4296 161.377 36.6829 160.044 35.7762L162.644 29.9362C163.897 30.7362 165.337 31.4029 166.964 31.9362C168.617 32.4429 170.257 32.6962 171.884 32.6962C172.977 32.6962 173.857 32.6029 174.524 32.4162C175.191 32.2029 175.671 31.9362 175.964 31.6162C176.284 31.2696 176.444 30.8696 176.444 30.4162C176.444 29.7762 176.151 29.2696 175.564 28.8962C174.977 28.5229 174.217 28.2162 173.284 27.9762C172.351 27.7362 171.311 27.4962 170.164 27.2562C169.044 27.0162 167.911 26.7096 166.764 26.3362C165.644 25.9629 164.617 25.4829 163.684 24.8962C162.751 24.2829 161.991 23.4962 161.404 22.5362C160.817 21.5496 160.524 20.3096 160.524 18.8162C160.524 17.1362 160.977 15.6162 161.884 14.2562C162.817 12.8962 164.204 11.8029 166.044 10.9762C167.884 10.1496 170.177 9.73623 172.924 9.73623C174.764 9.73623 176.564 9.94956 178.324 10.3762C180.111 10.7762 181.697 11.3762 183.084 12.1762L180.644 18.0562C179.311 17.3362 177.991 16.8029 176.684 16.4562C175.377 16.0829 174.111 15.8962 172.884 15.8962C171.791 15.8962 170.911 16.0162 170.244 16.2562C169.577 16.4696 169.097 16.7629 168.804 17.1362C168.511 17.5096 168.364 17.9362 168.364 18.4162C168.364 19.0296 168.644 19.5229 169.204 19.8962C169.791 20.2429 170.551 20.5362 171.484 20.7762C172.444 20.9896 173.484 21.2162 174.604 21.4562C175.751 21.6962 176.884 22.0029 178.004 22.3762C179.151 22.7229 180.191 23.2029 181.124 23.8162C182.057 24.4029 182.804 25.1896 183.364 26.1762C183.951 27.1362 184.244 28.3496 184.244 29.8162C184.244 31.4429 183.777 32.9496 182.844 34.3362C181.937 35.6962 180.564 36.7896 178.724 37.6162C176.911 38.4429 174.617 38.8562 171.844 38.8562Z" fill="#EEE8AA"/>
<path d="M134.468 38.2962V10.2962H142.388V32.0162H155.748V38.2962H134.468Z" fill="#EEE8AA"/>
<path d="M111.56 38.8562C109.32 38.8562 107.253 38.4962 105.36 37.7762C103.467 37.0562 101.813 36.0429 100.4 34.7362C99.0133 33.4029 97.9333 31.8562 97.16 30.0962C96.3866 28.3362 96 26.4029 96 24.2962C96 22.1896 96.3866 20.2562 97.16 18.4962C97.9333 16.7362 99.0133 15.2029 100.4 13.8962C101.813 12.5629 103.467 11.5362 105.36 10.8162C107.253 10.0962 109.32 9.73623 111.56 9.73623C113.827 9.73623 115.893 10.0962 117.76 10.8162C119.653 11.5362 121.293 12.5629 122.68 13.8962C124.067 15.2029 125.147 16.7362 125.92 18.4962C126.72 20.2562 127.12 22.1896 127.12 24.2962C127.12 26.4029 126.72 28.3496 125.92 30.1362C125.147 31.8962 124.067 33.4296 122.68 34.7362C121.293 36.0429 119.653 37.0562 117.76 37.7762C115.893 38.4962 113.827 38.8562 111.56 38.8562ZM111.56 32.2962C112.627 32.2962 113.613 32.1096 114.52 31.7362C115.453 31.3629 116.253 30.8296 116.92 30.1362C117.613 29.4162 118.147 28.5629 118.52 27.5762C118.92 26.5896 119.12 25.4962 119.12 24.2962C119.12 23.0696 118.92 21.9762 118.52 21.0162C118.147 20.0296 117.613 19.1896 116.92 18.4962C116.253 17.7762 115.453 17.2296 114.52 16.8562C113.613 16.4829 112.627 16.2962 111.56 16.2962C110.493 16.2962 109.493 16.4829 108.56 16.8562C107.653 17.2296 106.853 17.7762 106.16 18.4962C105.493 19.1896 104.96 20.0296 104.56 21.0162C104.187 21.9762 104 23.0696 104 24.2962C104 25.4962 104.187 26.5896 104.56 27.5762C104.96 28.5629 105.493 29.4162 106.16 30.1362C106.853 30.8296 107.653 31.3629 108.56 31.7362C109.493 32.1096 110.493 32.2962 111.56 32.2962Z" fill="#EEE8AA"/>
<path d="M270.119 72.0242C268.327 72.0242 266.61 71.7896 264.967 71.3202C263.325 70.8296 262.002 70.2002 260.999 69.4322L262.759 65.5282C263.719 66.2109 264.85 66.7762 266.151 67.2242C267.474 67.6509 268.807 67.8642 270.151 67.8642C271.175 67.8642 271.997 67.7682 272.615 67.5762C273.255 67.3629 273.725 67.0749 274.023 66.7122C274.322 66.3496 274.471 65.9336 274.471 65.4642C274.471 64.8669 274.237 64.3976 273.767 64.0562C273.298 63.6936 272.679 63.4056 271.911 63.1922C271.143 62.9576 270.29 62.7442 269.351 62.5522C268.434 62.3389 267.506 62.0829 266.567 61.7842C265.65 61.4856 264.807 61.1016 264.039 60.6322C263.271 60.1629 262.642 59.5442 262.151 58.7762C261.682 58.0082 261.447 57.0269 261.447 55.8322C261.447 54.5522 261.789 53.3896 262.471 52.3442C263.175 51.2776 264.221 50.4349 265.607 49.8162C267.015 49.1762 268.775 48.8562 270.887 48.8562C272.295 48.8562 273.682 49.0269 275.047 49.3682C276.413 49.6882 277.618 50.1789 278.663 50.8402L277.063 54.7762C276.018 54.1789 274.973 53.7416 273.927 53.4642C272.882 53.1656 271.858 53.0162 270.855 53.0162C269.853 53.0162 269.031 53.1336 268.391 53.3682C267.751 53.6029 267.293 53.9122 267.015 54.2962C266.738 54.6589 266.599 55.0856 266.599 55.5762C266.599 56.1522 266.834 56.6216 267.303 56.9842C267.773 57.3256 268.391 57.6029 269.159 57.8162C269.927 58.0296 270.77 58.2429 271.687 58.4562C272.626 58.6696 273.554 58.9149 274.471 59.1922C275.41 59.4696 276.263 59.8429 277.031 60.3122C277.799 60.7816 278.418 61.4002 278.887 62.1682C279.378 62.9362 279.623 63.9069 279.623 65.0802C279.623 66.3389 279.271 67.4909 278.567 68.5362C277.863 69.5816 276.807 70.4242 275.399 71.0642C274.013 71.7042 272.253 72.0242 270.119 72.0242Z" fill="#EEE8AA"/>
<path d="M246.058 58.2642H256.842V62.2962H246.058V58.2642ZM246.442 67.4802H258.634V71.6402H241.29V49.2402H258.218V53.4002H246.442V67.4802Z" fill="#EEE8AA"/>
<path d="M222.243 66.5202L221.955 60.5362L232.675 49.2402H238.435L228.771 59.6402L225.891 62.7122L222.243 66.5202ZM217.603 71.6402V49.2402H222.755V71.6402H217.603ZM232.931 71.6402L224.963 61.8802L228.355 58.2002L238.979 71.6402H232.931Z" fill="#EEE8AA"/>
<path d="M190.159 71.6402L200.143 49.2402H205.263L215.279 71.6402H209.839L201.647 51.8642H203.695L195.471 71.6402H190.159ZM195.151 66.8402L196.527 62.9042H208.047L209.455 66.8402H195.151Z" fill="#EEE8AA"/>
<path d="M180.76 72.0242C179.032 72.0242 177.422 71.7469 175.928 71.1922C174.456 70.6162 173.176 69.8056 172.088 68.7602C171 67.7149 170.147 66.4882 169.528 65.0802C168.931 63.6722 168.632 62.1256 168.632 60.4402C168.632 58.7549 168.931 57.2082 169.528 55.8002C170.147 54.3922 171 53.1656 172.088 52.1202C173.198 51.0749 174.488 50.2749 175.96 49.7202C177.432 49.1442 179.043 48.8562 180.792 48.8562C182.734 48.8562 184.483 49.1976 186.04 49.8802C187.619 50.5416 188.942 51.5229 190.008 52.8242L186.68 55.8962C185.912 55.0216 185.059 54.3709 184.12 53.9442C183.182 53.4962 182.158 53.2722 181.048 53.2722C180.003 53.2722 179.043 53.4429 178.168 53.7842C177.294 54.1256 176.536 54.6162 175.896 55.2562C175.256 55.8962 174.755 56.6536 174.392 57.5282C174.051 58.4029 173.88 59.3736 173.88 60.4402C173.88 61.5069 174.051 62.4776 174.392 63.3522C174.755 64.2269 175.256 64.9842 175.896 65.6242C176.536 66.2642 177.294 66.7549 178.168 67.0962C179.043 67.4376 180.003 67.6082 181.048 67.6082C182.158 67.6082 183.182 67.3949 184.12 66.9682C185.059 66.5202 185.912 65.8482 186.68 64.9522L190.008 68.0242C188.942 69.3256 187.619 70.3176 186.04 71.0002C184.483 71.6829 182.723 72.0242 180.76 72.0242Z" fill="#EEE8AA"/>
<path d="M146.603 71.6402V49.2402H156.299C158.304 49.2402 160.032 49.5709 161.483 50.2322C162.934 50.8722 164.054 51.8002 164.843 53.0162C165.632 54.2322 166.027 55.6829 166.027 57.3682C166.027 59.0322 165.632 60.4722 164.843 61.6882C164.054 62.9042 162.934 63.8429 161.483 64.5042C160.032 65.1442 158.304 65.4642 156.299 65.4642H149.483L151.787 63.1282V71.6402H146.603ZM151.787 63.7042L149.483 61.2402H156.011C157.611 61.2402 158.806 60.8989 159.595 60.2162C160.384 59.5336 160.779 58.5842 160.779 57.3682C160.779 56.1309 160.384 55.1709 159.595 54.4882C158.806 53.8056 157.611 53.4642 156.011 53.4642H149.483L151.787 51.0002V63.7042Z" fill="#EEE8AA"/>
<path d="M131.336 72.0242C128.158 72.0242 125.672 71.1389 123.88 69.3682C122.088 67.5976 121.192 65.0696 121.192 61.7842V49.2402H126.376V61.5922C126.376 63.7256 126.814 65.2616 127.688 66.2002C128.563 67.1389 129.79 67.6082 131.368 67.6082C132.947 67.6082 134.174 67.1389 135.048 66.2002C135.923 65.2616 136.36 63.7256 136.36 61.5922V49.2402H141.48V61.7842C141.48 65.0696 140.584 67.5976 138.792 69.3682C137 71.1389 134.515 72.0242 131.336 72.0242Z" fill="#EEE8AA"/>
<path d="M108.76 72.0242C107.032 72.0242 105.422 71.7469 103.928 71.1922C102.456 70.6162 101.176 69.8056 100.088 68.7602C99.0005 67.7149 98.1471 66.4882 97.5285 65.0802C96.9311 63.6722 96.6325 62.1256 96.6325 60.4402C96.6325 58.7549 96.9311 57.2082 97.5285 55.8002C98.1471 54.3922 99.0005 53.1656 100.088 52.1202C101.198 51.0749 102.488 50.2749 103.96 49.7202C105.432 49.1442 107.043 48.8562 108.792 48.8562C110.734 48.8562 112.483 49.1976 114.04 49.8802C115.619 50.5416 116.942 51.5229 118.008 52.8242L114.68 55.8962C113.912 55.0216 113.059 54.3709 112.12 53.9442C111.182 53.4962 110.158 53.2722 109.048 53.2722C108.003 53.2722 107.043 53.4429 106.168 53.7842C105.294 54.1256 104.536 54.6162 103.896 55.2562C103.256 55.8962 102.755 56.6536 102.392 57.5282C102.051 58.4029 101.88 59.3736 101.88 60.4402C101.88 61.5069 102.051 62.4776 102.392 63.3522C102.755 64.2269 103.256 64.9842 103.896 65.6242C104.536 66.2642 105.294 66.7549 106.168 67.0962C107.043 67.4376 108.003 67.6082 109.048 67.6082C110.158 67.6082 111.182 67.3949 112.12 66.9682C113.059 66.5202 113.912 65.8482 114.68 64.9522L118.008 68.0242C116.942 69.3256 115.619 70.3176 114.04 71.0002C112.483 71.6829 110.723 72.0242 108.76 72.0242Z" fill="#EEE8AA"/>
<path d="M159.761 96.2642C158.721 96.2642 157.721 96.0976 156.761 95.7642C155.815 95.4176 155.081 94.9776 154.561 94.4442L155.141 93.3042C155.635 93.7842 156.295 94.1909 157.121 94.5242C157.961 94.8442 158.841 95.0042 159.761 95.0042C160.641 95.0042 161.355 94.8976 161.901 94.6842C162.461 94.4576 162.868 94.1576 163.121 93.7842C163.388 93.4109 163.521 92.9976 163.521 92.5442C163.521 91.9976 163.361 91.5576 163.041 91.2242C162.735 90.8909 162.328 90.6309 161.821 90.4442C161.315 90.2442 160.755 90.0709 160.141 89.9242C159.528 89.7776 158.915 89.6242 158.301 89.4642C157.688 89.2909 157.121 89.0642 156.601 88.7842C156.095 88.5042 155.681 88.1376 155.361 87.6842C155.055 87.2176 154.901 86.6109 154.901 85.8642C154.901 85.1709 155.081 84.5376 155.441 83.9642C155.815 83.3776 156.381 82.9109 157.141 82.5642C157.901 82.2042 158.875 82.0242 160.061 82.0242C160.848 82.0242 161.628 82.1376 162.401 82.3642C163.175 82.5776 163.841 82.8776 164.401 83.2642L163.901 84.4442C163.301 84.0442 162.661 83.7509 161.981 83.5642C161.315 83.3776 160.668 83.2842 160.041 83.2842C159.201 83.2842 158.508 83.3976 157.961 83.6242C157.415 83.8509 157.008 84.1576 156.741 84.5442C156.488 84.9176 156.361 85.3442 156.361 85.8242C156.361 86.3709 156.515 86.8109 156.821 87.1442C157.141 87.4776 157.555 87.7376 158.061 87.9242C158.581 88.1109 159.148 88.2776 159.761 88.4242C160.375 88.5709 160.981 88.7309 161.581 88.9042C162.195 89.0776 162.755 89.3042 163.261 89.5842C163.781 89.8509 164.195 90.2109 164.501 90.6642C164.821 91.1176 164.981 91.7109 164.981 92.4442C164.981 93.1242 164.795 93.7576 164.421 94.3442C164.048 94.9176 163.475 95.3842 162.701 95.7442C161.941 96.0909 160.961 96.2642 159.761 96.2642Z" fill="#EEE8AA"/>
<path d="M135.2 96.1442V82.1442H136.42L142.82 93.0642H142.18L148.52 82.1442H149.74V96.1442H148.32V84.3642H148.66L142.82 94.3642H142.12L136.24 84.3642H136.62V96.1442H135.2Z" fill="#EEE8AA"/>
<path d="M123.4 96.2642C121.613 96.2642 120.207 95.7509 119.18 94.7242C118.153 93.6976 117.64 92.1776 117.64 90.1642V82.1442H119.12V90.1042C119.12 91.7576 119.493 92.9776 120.24 93.7642C120.987 94.5509 122.04 94.9442 123.4 94.9442C124.773 94.9442 125.833 94.5509 126.58 93.7642C127.327 92.9776 127.7 91.7576 127.7 90.1042V82.1442H129.14V90.1642C129.14 92.1776 128.627 93.6976 127.6 94.7242C126.587 95.7509 125.187 96.2642 123.4 96.2642Z" fill="#EEE8AA"/>
<path d="M97.0583 96.1442V82.1442H98.2783L104.678 93.0642H104.038L110.378 82.1442H111.598V96.1442H110.178V84.3642H110.518L104.678 94.3642H103.978L98.0983 84.3642H98.4783V96.1442H97.0583Z" fill="#EEE8AA"/>
<path d="M264.937 96.1442L271.337 82.1442H272.797L279.197 96.1442H277.637L271.757 83.0042H272.357L266.477 96.1442H264.937ZM267.457 92.4042L267.897 91.2042H276.037L276.477 92.4042H267.457Z" fill="#EEE8AA"/>
<path d="M250.499 96.1442V82.1442H256.539C258.099 82.1442 259.306 82.4576 260.159 83.0842C261.026 83.7109 261.459 84.5976 261.459 85.7442C261.459 86.5042 261.279 87.1442 260.919 87.6642C260.573 88.1842 260.093 88.5776 259.479 88.8442C258.879 89.1109 258.219 89.2442 257.499 89.2442L257.839 88.7642C258.733 88.7642 259.499 88.9042 260.139 89.1842C260.793 89.4509 261.299 89.8576 261.659 90.4042C262.019 90.9376 262.199 91.6042 262.199 92.4042C262.199 93.5909 261.759 94.5109 260.879 95.1642C260.013 95.8176 258.699 96.1442 256.939 96.1442H250.499ZM251.979 94.9242H256.919C258.146 94.9242 259.086 94.7176 259.739 94.3042C260.393 93.8776 260.719 93.2042 260.719 92.2842C260.719 91.3776 260.393 90.7176 259.739 90.3042C259.086 89.8776 258.146 89.6642 256.919 89.6642H251.819V88.4442H256.439C257.559 88.4442 258.426 88.2309 259.039 87.8042C259.666 87.3776 259.979 86.7442 259.979 85.9042C259.979 85.0509 259.666 84.4176 259.039 84.0042C258.426 83.5776 257.559 83.3642 256.439 83.3642H251.979V94.9242Z" fill="#EEE8AA"/>
<path d="M232.323 96.1442L238.723 82.1442H240.183L246.583 96.1442H245.023L239.143 83.0042H239.743L233.863 96.1442H232.323ZM234.843 92.4042L235.283 91.2042H243.423L243.863 92.4042H234.843Z" fill="#EEE8AA"/>
<path d="M217.885 96.1442V82.1442H223.925C225.485 82.1442 226.692 82.4576 227.545 83.0842C228.412 83.7109 228.845 84.5976 228.845 85.7442C228.845 86.5042 228.665 87.1442 228.305 87.6642C227.958 88.1842 227.478 88.5776 226.865 88.8442C226.265 89.1109 225.605 89.2442 224.885 89.2442L225.225 88.7642C226.118 88.7642 226.885 88.9042 227.525 89.1842C228.178 89.4509 228.685 89.8576 229.045 90.4042C229.405 90.9376 229.585 91.6042 229.585 92.4042C229.585 93.5909 229.145 94.5109 228.265 95.1642C227.398 95.8176 226.085 96.1442 224.325 96.1442H217.885ZM219.365 94.9242H224.305C225.532 94.9242 226.472 94.7176 227.125 94.3042C227.778 93.8776 228.105 93.2042 228.105 92.2842C228.105 91.3776 227.778 90.7176 227.125 90.3042C226.472 89.8776 225.532 89.6642 224.305 89.6642H219.205V88.4442H223.825C224.945 88.4442 225.812 88.2309 226.425 87.8042C227.052 87.3776 227.365 86.7442 227.365 85.9042C227.365 85.0509 227.052 84.4176 226.425 84.0042C225.812 83.5776 224.945 83.3642 223.825 83.3642H219.365V94.9242Z" fill="#EEE8AA"/>
<path d="M210.25 96.1442V82.1442H211.73V96.1442H210.25Z" fill="#EEE8AA"/>
<path d="M196.873 96.1442V82.1442H198.353V94.8642H206.193V96.1442H196.873Z" fill="#EEE8AA"/>
<path d="M189.237 96.1442V82.1442H190.717V96.1442H189.237Z" fill="#EEE8AA"/>
<path d="M176.301 88.9242H183.701V90.2042H176.301V88.9242ZM176.461 96.1442H174.981V82.1442H184.581V83.4242H176.461V96.1442Z" fill="#EEE8AA"/>
</svg>
