<svg width="200" height="200" viewBox="0 0 200 200" fill="none" xmlns="http://www.w3.org/2000/svg">
<g clip-path="url(#clip0_6_20)">
<path d="M-2.20996 -2.20996H200V200H-2.20996V-2.20996Z" fill="#003D76"/>
<path d="M47.0939 123.657H56.9171V91.768H71.0276V82.7624H56.9171V59.105H72.7403V50.1989H47.0939V123.657ZM96.1105 64.7403C86.2873 64.7403 80.3536 70.4752 80.3536 80.5083V108.785C80.3536 118.807 86.2873 124.553 96.1105 124.553C105.934 124.553 111.867 118.807 111.867 108.785V80.5083C111.867 70.4752 105.923 64.7403 96.1105 64.7403ZM102.166 108.221C102.166 113.403 99.7569 115.878 96.1105 115.878C92.4641 115.878 90.0553 113.403 90.0553 108.221V81.0718C90.0553 75.8895 92.4531 73.4144 96.1105 73.4144C99.768 73.4144 102.166 75.8895 102.166 81.0718V108.221ZM143.348 69.4586C142.243 66.5304 138.331 64.7293 134.785 64.7293C125.536 64.7293 121.204 70.3536 121.204 80.4973V108.774C121.204 118.906 125.536 124.541 134.785 124.541C138.099 124.541 141.978 122.63 143.006 120.033V129.271C143.006 134.453 140.729 136.939 137.072 136.939C133.414 136.939 131.138 134.453 131.138 129.271V128.265H121.47V129.834C121.47 139.867 127.293 145.613 137.105 145.613C146.917 145.613 152.74 139.867 152.74 129.834V65.6354H143.348V69.4586ZM143.006 108.21C143.006 113.392 140.608 115.867 136.961 115.867C133.315 115.867 130.906 113.392 130.906 108.21V81.0718C130.906 75.8895 133.304 73.4144 136.961 73.4144C140.619 73.4144 143.006 75.8895 143.006 81.0718V108.21ZM165.669 71.6685C165.556 71.338 165.367 71.0388 165.116 70.7956C164.916 70.6084 164.679 70.4654 164.42 70.3757C164.834 70.2972 165.218 70.1017 165.525 69.8122C165.793 69.5075 165.935 69.1126 165.923 68.7072C165.929 68.4257 165.872 68.1464 165.757 67.8895C165.644 67.6577 165.473 67.4596 165.26 67.3149C165.009 67.1535 164.733 67.0376 164.442 66.9724C164.077 66.9059 163.708 66.8726 163.337 66.8729H161.547C161.454 66.8667 161.36 66.8802 161.273 66.9126C161.185 66.9449 161.105 66.9954 161.039 67.0608C160.916 67.2094 160.853 67.3985 160.862 67.5912V73.116C160.862 73.221 160.928 73.3149 161.028 73.3481C161.236 73.3812 161.449 73.3812 161.657 73.3481C161.862 73.3812 162.072 73.3812 162.276 73.3481C162.32 73.3278 162.356 73.2946 162.379 73.2531C162.403 73.2115 162.413 73.1637 162.409 73.116V70.9061H162.829C163.101 70.8828 163.373 70.9615 163.591 71.1271C163.81 71.3437 163.967 71.6133 164.044 71.9116L164.365 73.0166C164.378 73.0856 164.408 73.1502 164.453 73.2044L164.519 73.2763L164.608 73.3149H166.022C166.088 73.3149 166.133 73.3149 166.144 73.2376C166.154 73.1978 166.154 73.1558 166.144 73.116C166.124 72.965 166.087 72.8167 166.033 72.674L165.669 71.6685ZM163.978 69.4586C163.72 69.6485 163.401 69.7352 163.083 69.7017H162.354V68.0442H163.072C163.251 68.0448 163.429 68.067 163.602 68.1105C163.733 68.1309 163.856 68.1884 163.956 68.2763C164.041 68.3488 164.102 68.4449 164.133 68.5525C164.149 68.6587 164.149 68.7668 164.133 68.8729C164.137 68.9915 164.116 69.1096 164.072 69.2199C164.029 69.3302 163.963 69.4302 163.878 69.5138" fill="white"/>
<path d="M168.917 67.8453C168.628 67.1397 168.198 66.5 167.655 65.9645C167.112 65.429 166.466 65.0088 165.757 64.7293C164.978 64.4277 164.15 64.2777 163.315 64.2873C162.493 64.2809 161.678 64.4386 160.917 64.7514C160.195 65.0356 159.538 65.4618 158.984 66.0046C158.429 66.5474 157.99 67.1959 157.691 67.9116C157.368 68.6501 157.207 69.4485 157.215 70.2541C157.204 71.0718 157.359 71.884 157.669 72.6409C157.951 73.3462 158.376 73.9857 158.917 74.5193C159.465 75.0585 160.115 75.483 160.829 75.768C161.604 76.0686 162.429 76.2187 163.26 76.2099C164.078 76.2173 164.89 76.0595 165.646 75.7459C166.371 75.4533 167.032 75.0216 167.591 74.4751C168.154 73.9193 168.6 73.2568 168.904 72.5263C169.208 71.7958 169.362 71.0121 169.359 70.221C169.369 69.4078 169.219 68.6006 168.917 67.8453ZM167.635 72.1326C167.416 72.6821 167.093 73.1846 166.685 73.6133C166.264 74.0473 165.761 74.3929 165.204 74.6298C163.986 75.1051 162.633 75.1051 161.414 74.6298C160.858 74.4091 160.353 74.0741 159.934 73.6464C159.514 73.2056 159.184 72.6878 158.961 72.1215C158.726 71.4928 158.61 70.8259 158.619 70.1547C158.617 69.5355 158.73 68.9212 158.95 68.3425C159.162 67.7824 159.485 67.2712 159.901 66.8398C160.322 66.4088 160.825 66.0663 161.381 65.8343C161.994 65.5819 162.652 65.4578 163.315 65.4696C163.948 65.4693 164.577 65.5815 165.171 65.8011C165.736 66.0293 166.246 66.3749 166.667 66.8149C167.088 67.2549 167.41 67.7794 167.613 68.3536C167.856 68.9834 167.978 69.6553 167.967 70.3315C167.967 70.9542 167.855 71.5719 167.635 72.1547" fill="white"/>
</g>
<defs>
<clipPath id="clip0_6_20">
<rect width="200" height="200" fill="white"/>
</clipPath>
</defs>
</svg>
